<?xml version="1.0" standalone="no"?>
<!DOCTYPE svg PUBLIC "-//W3C//DTD SVG 20010904//EN"
 "http://www.w3.org/TR/2001/REC-SVG-20010904/DTD/svg10.dtd">
<svg version="1.0" xmlns="http://www.w3.org/2000/svg"
 width="710.000000pt" height="545.000000pt" viewBox="0 0 710.000000 545.000000"
 preserveAspectRatio="xMidYMid meet">

<g transform="translate(0.000000,545.000000) scale(0.100000,-0.100000)"
fill="#000000" stroke="none">
<path d="M3100 5100 c-103 -11 -343 -67 -405 -95 -16 -7 -46 -16 -65 -20 -19
-4 -41 -11 -50 -15 -354 -176 -340 -168 -435 -230 -81 -52 -66 -41 -175 -128
-163 -129 -254 -221 -367 -372 -129 -173 -156 -218 -262 -435 -81 -166 -94
-201 -146 -400 -8 -33 -22 -82 -30 -110 -8 -27 -22 -143 -31 -256 -15 -193
-15 -221 1 -410 9 -112 23 -224 31 -249 7 -25 16 -65 20 -90 17 -127 120 -397
202 -530 12 -19 27 -47 33 -63 6 -15 20 -32 30 -38 10 -5 19 -18 19 -29 0 -10
5 -22 10 -25 15 -9 12 23 -4 53 -50 95 -113 362 -138 577 -16 147 -13 376 7
500 21 124 70 324 90 362 8 15 15 33 15 38 0 23 119 292 140 318 6 7 44 62 85
122 41 61 90 134 110 162 64 91 317 325 460 424 55 38 210 129 221 129 3 0 35
14 70 31 35 16 88 38 117 48 72 26 116 41 157 57 19 7 61 18 93 23 31 6 66 15
76 20 10 6 63 15 117 20 391 39 407 41 454 72 91 59 123 103 146 200 12 53 12
68 -2 121 -23 90 -63 147 -139 196 -39 26 -45 27 -210 28 -93 1 -204 -1 -245
-6z"/>
<path d="M3907 4876 c-4 -10 -7 -43 -7 -74 0 -108 -66 -248 -158 -334 -77 -72
-169 -117 -261 -129 -36 -4 -95 -12 -131 -18 -36 -6 -114 -13 -175 -17 -60 -4
-136 -15 -169 -25 -32 -11 -67 -19 -77 -19 -10 0 -20 -4 -23 -9 -3 -5 -30 -15
-58 -21 -29 -7 -65 -19 -80 -26 -15 -8 -35 -14 -45 -14 -10 0 -47 -16 -83 -34
-36 -19 -94 -49 -130 -67 -114 -58 -184 -101 -225 -139 -22 -20 -67 -57 -100
-80 -90 -65 -147 -122 -255 -256 -128 -157 -263 -411 -305 -569 -7 -27 -18
-63 -24 -80 -35 -100 -45 -142 -56 -245 -6 -63 -18 -154 -26 -203 -11 -72 -11
-102 0 -170 7 -45 19 -134 26 -197 12 -103 21 -143 56 -245 6 -16 17 -52 24
-80 16 -61 42 -134 55 -157 5 -9 26 -50 47 -90 20 -40 43 -79 50 -86 7 -7 13
-22 13 -33 0 -11 6 -22 14 -25 8 -3 20 -20 27 -37 11 -28 13 -30 16 -10 2 12
-5 39 -15 60 -33 64 -91 336 -102 473 -9 117 4 334 26 445 19 95 109 336 166
443 34 67 70 135 78 151 13 25 81 108 140 171 9 8 28 32 44 52 15 21 60 63 99
95 40 31 99 81 132 110 33 30 70 59 82 66 22 12 83 45 205 110 37 19 87 40
110 45 24 6 61 17 83 26 22 8 50 15 63 16 13 0 36 7 53 15 16 9 76 20 132 25
56 5 118 14 138 20 21 6 95 14 165 19 117 8 203 26 244 52 8 5 26 15 40 22 30
14 140 97 174 129 26 26 106 134 106 144 0 3 8 18 19 32 10 15 29 59 42 97 21
61 24 88 23 205 0 121 -3 143 -28 215 -35 99 -79 183 -121 232 -27 31 -32 34
-38 19z"/>
<path d="M4267 4674 c-7 -7 -1 -77 15 -180 8 -57 7 -93 -7 -190 -9 -65 -23
-130 -30 -144 -7 -14 -15 -39 -18 -55 -6 -35 -81 -169 -123 -222 -86 -109
-198 -203 -306 -255 -121 -60 -196 -79 -347 -88 -322 -20 -499 -62 -701 -169
-52 -28 -106 -55 -120 -61 -13 -6 -54 -35 -90 -63 -36 -29 -83 -65 -105 -80
-49 -33 -153 -140 -220 -226 -52 -67 -176 -297 -194 -360 -16 -56 -41 -133
-57 -171 -8 -19 -19 -71 -24 -115 -5 -44 -14 -117 -21 -162 -11 -67 -11 -101
0 -175 6 -51 16 -130 21 -176 6 -46 15 -93 21 -105 7 -11 18 -42 25 -67 32
-111 65 -187 157 -365 19 -35 37 -46 37 -22 0 6 -10 53 -21 102 -53 234 -45
475 23 685 83 260 191 425 389 596 51 43 100 86 108 94 19 18 254 135 291 145
14 4 48 15 75 25 102 37 154 43 490 63 39 2 95 12 125 22 142 47 172 60 307
129 21 11 47 28 58 39 11 10 45 37 75 60 72 55 96 78 162 162 120 152 211 376
229 564 15 147 -5 312 -56 471 -21 63 -42 121 -47 128 -6 7 -18 25 -27 40 -78
138 -80 140 -94 126z"/>
<path d="M4630 4432 c0 -24 7 -58 15 -78 17 -42 45 -222 45 -295 0 -85 -31
-315 -49 -364 -6 -16 -22 -69 -37 -117 -14 -48 -32 -93 -40 -99 -8 -6 -14 -16
-14 -21 0 -5 -19 -42 -42 -81 -58 -100 -179 -248 -241 -294 -29 -22 -71 -57
-93 -77 -61 -55 -258 -165 -334 -188 -128 -38 -277 -67 -375 -73 -255 -17
-377 -46 -551 -131 -101 -49 -171 -98 -272 -194 -114 -108 -234 -295 -257
-401 -4 -19 -13 -43 -20 -54 -7 -11 -21 -63 -31 -115 -44 -222 -5 -519 89
-689 68 -121 98 -167 116 -179 12 -7 21 -11 21 -10 0 2 -9 50 -20 108 -22 109
-26 204 -15 287 22 152 102 333 192 433 45 50 213 190 263 219 59 34 126 63
159 68 20 3 48 12 63 19 14 7 91 18 170 24 78 5 161 14 183 19 22 5 76 12 120
16 44 4 101 16 128 26 26 10 55 19 65 19 17 0 114 35 142 51 8 5 47 25 85 45
105 54 143 78 198 125 27 24 69 58 93 75 56 40 87 72 164 169 35 44 68 85 75
90 19 16 175 311 175 331 0 6 16 60 35 120 54 166 72 363 51 562 -13 125 -23
170 -66 302 -28 85 -57 164 -64 175 -7 11 -35 61 -61 110 -60 114 -65 119 -65
67z"/>
<path d="M4961 4264 c0 -11 3 -14 6 -6 3 7 2 16 -1 19 -3 4 -6 -2 -5 -13z"/>
<path d="M4990 4208 c0 -19 6 -40 13 -46 6 -7 17 -43 23 -80 6 -37 19 -96 27
-132 26 -109 42 -317 29 -391 -6 -35 -14 -107 -18 -159 -3 -52 -13 -107 -20
-122 -8 -15 -14 -37 -14 -50 -1 -13 -8 -41 -16 -63 -9 -22 -21 -65 -28 -95
-15 -62 -33 -101 -111 -248 -67 -125 -84 -151 -171 -255 -80 -95 -124 -140
-178 -182 -21 -16 -46 -37 -55 -46 -62 -59 -145 -119 -206 -149 -22 -11 -47
-24 -55 -29 -74 -48 -170 -93 -245 -115 -219 -67 -237 -70 -560 -102 -155 -15
-212 -30 -325 -86 -120 -61 -230 -171 -287 -288 -64 -132 -83 -202 -83 -311 0
-72 6 -115 26 -184 15 -49 30 -94 35 -100 5 -5 9 -16 9 -26 0 -26 100 -169
119 -169 14 0 17 12 17 74 1 116 62 266 135 332 36 32 121 89 169 114 32 16
72 24 164 31 66 4 135 13 152 18 18 5 81 12 140 16 60 4 122 13 138 21 17 8
48 17 70 21 23 3 59 14 81 24 22 10 49 19 60 19 11 0 33 7 49 15 15 8 34 15
40 15 6 0 41 16 76 35 36 19 76 39 90 46 14 6 32 15 40 20 8 5 31 17 50 25 49
22 147 90 181 125 16 17 60 53 97 81 37 28 79 63 93 77 63 64 269 335 269 355
0 4 17 38 39 74 85 149 105 193 158 362 54 169 56 181 70 365 13 169 13 209
-1 375 -16 191 -25 232 -107 473 -28 82 -129 280 -150 293 -5 3 -9 14 -9 24 0
10 -4 22 -10 25 -6 4 -10 -8 -10 -27z"/>
<path d="M5310 4061 c0 -11 6 -26 13 -33 8 -7 17 -31 21 -53 4 -22 12 -45 18
-52 10 -12 36 -106 63 -226 8 -38 20 -77 26 -88 31 -59 28 -644 -5 -762 -8
-29 -17 -74 -21 -102 -7 -59 -41 -179 -61 -217 -8 -14 -14 -32 -14 -40 0 -27
-194 -396 -219 -418 -3 -3 -20 -26 -38 -51 -46 -66 -84 -108 -203 -228 -136
-136 -218 -211 -272 -248 -160 -110 -210 -142 -263 -167 -99 -47 -137 -63
-197 -85 -32 -12 -82 -30 -110 -40 -134 -49 -405 -97 -599 -105 -177 -8 -254
-53 -314 -185 -60 -130 -7 -291 120 -365 38 -23 180 -60 195 -51 3 1 86 8 185
15 111 7 203 19 240 30 33 10 80 23 105 29 195 51 231 64 414 151 100 47 168
86 251 144 17 11 62 42 102 68 168 113 424 379 561 584 117 177 206 356 260
529 103 332 115 408 116 730 0 259 -12 378 -60 570 -40 160 -153 434 -230 559
-24 39 -49 83 -55 99 -13 31 -29 36 -29 8z"/>
<path d="M2190 1186 c0 -9 5 -16 10 -16 6 0 10 4 10 9 0 6 -4 13 -10 16 -5 3
-10 -1 -10 -9z"/>
</g>
</svg>
